/* XPM */
static char *autorealm_xpm[] = {
/* width height ncolors chars_per_pixel */
"32 32 5 1",
/* colors */
"  c #000000",
". c #FFFFFF",
"X c #FFFF00",
"o c #808000",
"O c None",
/* pixels */
"                                ",
"                                ",
"       o.o.o.o.o.X.X.X.X.X. .   ",
"       .o.o.o.X.X.X.X.X.X.X o.  ",
"      .o.o.X.X       X.X.X o.   ",
"      o.o.X.X.       .X.X.      ",
"      .o.X.X.X.X.X.X.X X.X      ",
"       .X.X.X.X.X.     .X.X     ",
"       X.X.X X.X.X X.X  .X.     ",
"       .X.X.   .  X.X.X X.X     ",
"       X.X.X X   X.X.X. .X.     ",
"       .X.X  .X X.X   X X.X     ",
"       X.   .X.X.X...X. .X.     ",
"       .X       X.     .X.X     ",
"       X.X.X X.X.X.. X.X.X.     ",
"       .X.X.    X.     .X.X     ",
"        .X.X. .X.X.X.  X.X..    ",
"        X.X   X.X.    X.X.X.    ",
"        .X      .X    .X.X.X    ",
"        X.X.X X.     .X.X.X.    ",
"        .X.X.    X.X.X.X.X.X    ",
"       .X.X.X X.X.X.X.X.X.X     ",
"       X.X.X.X.X.X.X.X.X.X.     ",
"       .X.X.X.X.X.X.X.X.X.o     ",
"       o.o.o.o.o.o.o.o.o.o.     ",
"                        o.o     ",
"   X.X.X.X.X.X.X.X.X. .o.o      ",
"  X.X.X.X.X.X.X.X.X.X o.o.      ",
"  .X.X.X.X.X.X.X.X.X.X o        ",
"                                ",
"                                ",
"                                "
};
